<svg xmlns="http://www.w3.org/2000/svg" xmlns:xlink="http://www.w3.org/1999/xlink" width="16" height="16" viewBox="0 0 16 16">
  <defs>
    <polygon id="calendar-a" points="0 0 15.2 0 15.2 16 0 16"/>
  </defs>
  <g fill="none" fill-rule="evenodd">
    <mask id="calendar-b" fill="#fff">
      <use xlink:href="#calendar-a"/>
    </mask>
    <path fill="#F5A623" d="M3.72548933,10.0094302 C4.247053,10.0094302 4.69407297,9.55448045 4.69407297,9.0236648 C4.69407297,8.4929162 4.247053,8.03787709 3.72548933,8.03787709 C3.20390365,8.03787709 2.75681764,8.49282682 2.75681764,9.0236648 C2.75681764,9.55448045 3.20390365,10.0094302 3.72548933,10.0094302 L3.72548933,10.0094302 Z M14.082285,14.255933 C14.082285,14.6350391 13.7842203,15.0142346 13.3372003,15.0142346 L1.63919065,15.0142346 C1.26664832,15.0142346 0.894105992,14.710905 0.894105992,14.255933 L0.894105992,6.8246257 L14.082285,6.8246257 L14.082285,14.255933 Z M12.1450296,1.66820112 L12.1450296,2.65396648 L13.4116779,2.65396648 C13.7842203,2.65396648 14.1568507,2.95731844 14.1568507,3.41235754 L14.1568507,5.91470391 L0.968583636,5.91470391 L0.968583636,3.41226816 C0.968583636,3.03318436 1.26664832,2.65396648 1.71375635,2.65396648 L3.05488232,2.65396648 L3.05488232,1.66820112 L1.788234,1.66820112 C0.819628348,1.66820112 -4.4408921e-14,2.50234637 -4.4408921e-14,3.48813408 L-4.4408921e-14,14.1800894 C-4.4408921e-14,15.1658547 0.745084657,16 1.71375635,16 L13.411766,16 C14.3803496,16 15.2,15.1658547 15.2,14.1800894 L15.2,3.48813408 C15.2,2.50234637 14.3803496,1.66820112 13.4116779,1.66820112 L12.1450296,1.66820112 Z M7.52543429,10.0094302 C8.04701997,10.0094302 8.49401793,9.55448045 8.49401793,9.0236648 C8.49401793,8.4929162 8.04701997,8.03787709 7.52543429,8.03787709 C7.00387063,8.03787709 6.55685066,8.49282682 6.55685066,9.0236648 C6.55685066,9.55448045 7.00387063,10.0094302 7.52543429,10.0094302 L7.52543429,10.0094302 Z M3.72548933,13.8767374 C4.247053,13.8767374 4.69407297,13.4217877 4.69407297,12.8909721 C4.69407297,12.3601564 4.247053,11.9052067 3.72548933,11.9052067 C3.20390365,11.9052067 2.75681764,12.3601564 2.75681764,12.8909721 C2.75681764,13.4217877 3.20390365,13.8767374 3.72548933,13.8767374 L3.72548933,13.8767374 Z M7.52543429,13.8767374 C8.04701997,13.8767374 8.49401793,13.4217877 8.49401793,12.8909721 C8.49401793,12.3601564 8.04701997,11.9052067 7.52543429,11.9052067 C7.00387063,11.9052067 6.55685066,12.3601564 6.55685066,12.8909721 C6.55685066,13.4217877 7.00387063,13.8767374 7.52543429,13.8767374 L7.52543429,13.8767374 Z M9.164713,1.66820112 L5.811766,1.66820112 L5.811766,2.65396648 L9.16462494,2.65396648 L9.16462494,1.66820112 L9.164713,1.66820112 Z M10.5804047,4.39803352 C10.9528589,4.39803352 11.2509236,4.0947933 11.2509236,3.79146369 L11.2509236,0.606569832 C11.2509236,0.303240223 10.9528589,0 10.5804047,0 C10.28234,0 9.98427531,0.227463687 9.98427531,0.606569832 L9.98427531,3.79146369 C9.98427531,4.09470391 10.2077743,4.39803352 10.5804047,4.39803352 L10.5804047,4.39803352 Z M4.39600828,4.39803352 C4.76861666,4.39803352 5.0666153,4.0947933 5.0666153,3.79146369 L5.0666153,0.606569832 C5.0666153,0.303240223 4.76855061,0 4.39600828,0 C4.09803166,0 3.79994496,0.227463687 3.79994496,0.606569832 L3.79994496,3.79146369 C3.79994496,4.09470391 4.02346596,4.39803352 4.39600828,4.39803352 L4.39600828,4.39803352 Z M11.3254893,10.0094302 C11.847053,10.0094302 12.294073,9.55448045 12.294073,9.0236648 C12.294073,8.4929162 11.847053,8.03787709 11.3254893,8.03787709 C10.8039037,8.03787709 10.3568176,8.49282682 10.3568176,9.0236648 C10.3568176,9.55448045 10.8039037,10.0094302 11.3254893,10.0094302 L11.3254893,10.0094302 Z" mask="url(#calendar-b)"/>
  </g>
</svg>
